# xmcd
#
# Track frame offsets: 
#        150
#        14272
#        35185
#        55417
#        69955
#        83575
#        107022
#        124917
#        142387
#        153012
#        166732
#
# Disc length: 2396 seconds
#
# Revision: 3
# Processed by: cddbd v1.4PL0 Copyright (c) Steve Scherf et al.
# Submitted via: ExactAudioCopy v0.95a3
#
DISCID=8e095a0b
DTITLE=HLAS Ivan - Tanec pri svickach
DYEAR=1995
DGENRE=Folk/Rock
TTITLE0=Podivna vec
TTITLE1=Nadrazni blues
TTITLE2=Tanec pri svickach
TTITLE3=Krasna a velika
TTITLE4=Strasak
TTITLE5=Svet je nevinnej
TTITLE6=Takova kouzelna noc
TTITLE7=Dej mi jen par minut
TTITLE8=My si muzem vsechno dat
TTITLE9=Aranka umi hula hop
TTITLE10=Franceska
EXTD=
EXTT0=
EXTT1=
EXTT2=
EXTT3=
EXTT4=
EXTT5=
EXTT6=
EXTT7=
EXTT8=
EXTT9=
EXTT10=
PLAYORDER=
